# AST/ASF file generated using VICON BodyLanguage
# -----------------------------------------------
:version 1.10
:name VICON
:units
  mass 1.0
  length 0.45
  angle deg
:documentation
   .ast/.asf automatically generated from VICON data using
   VICON BodyBuilder and BodyLanguage model FoxedUp or BRILLIANT.MOD
:root
   order TX TY TZ RX RY RZ
   axis XYZ
   position 0 0 0  
   orientation 0 0 0 
:bonedata
  begin
     id 1 
     name lhipjoint
     direction 0.558404 -0.748506 0.357664 
     length 2.4234 
     axis 0 0 0  XYZ
  end
  begin
     id 2 
     name lfemur
     direction 0.34202 -0.939693 0  
     length 7.14567  
     axis 0 0 20  XYZ
    dof rx ry rz
    limits (-160.0 20.0)
           (-70.0 70.0)
           (-60.0 70.0)
  end
  begin
     id 3 
     name ltibia
     direction 0.34202 -0.939693 0   
     length 8.13956   
     axis 0 0 20   XYZ
    dof rx
    limits (-10.0 170.0)
  end
  begin
     id 4 
     name lfoot
     direction 0.0791314 -0.217412 0.972867   
     length 2.00134   
     axis -90 7.62852e-016 20   XYZ
    dof rx rz
    limits (-45.0 90.0)
           (-70.0 20.0)
  end
  begin
     id 5 
     name ltoes
     direction 1.53547e-011 -4.21922e-011 1   
     length 1.00735   
     axis -90 7.62852e-016 20   XYZ
    dof rx
    limits (-90.0 20.0)
  end
  begin
     id 6 
     name rhipjoint
     direction -0.496392 -0.78327 0.374276   
     length 2.31584  
     axis 0 0 0  XYZ 
  end
  begin
     id 7 
     name rfemur
     direction -0.34202 -0.939693 0   
     length 7.47417   
     axis 0 0 -20   XYZ
    dof rx ry rz
    limits (-160.0 20.0)
           (-70.0 70.0)
           (-70.0 60.0)
  end
  begin
     id 8 
     name rtibia
     direction -0.34202 -0.939693 0   
     length 7.69071   
     axis 0 0 -20   XYZ
    dof rx
    limits (-10.0 170.0)
 end
 begin
     id 9 
     name rfoot
     direction -0.103069 -0.28318 0.953512   
     length 2.16135  
     axis -90 -7.62852e-016 -20   XYZ
    dof rx rz
    limits (-45.0 90.0)
           (-20.0 70.0)
  end
  begin
     id 10 
     name rtoes
     direction -1.53581e-011 -4.21904e-011 1   
     length 1.07867   
     axis -90 -7.62852e-016 -20   XYZ
    dof rx
    limits (-90.0 20.0)
  end
  begin
     id 11 
     name lowerback
     direction -0.0258961 0.994776 -0.0987407   
     length 2.19412   
     axis 0 0 0   XYZ
    dof rx ry rz
    limits (-20.0 45.0)
           (-30.0 30.0)
           (-30.0 30.0)
  end
  begin
     id 12 
     name upperback
     direction 0.0402454 0.999185 0.00320666   
     length 2.18445   
     axis 0 0 0   XYZ
    dof rx ry rz
    limits (-20.0 45.0)
           (-30.0 30.0)
           (-30.0 30.0)
  end
  begin
     id 13 
     name thorax
     direction 0.0519376 0.997415 0.0496558   
     length 2.21487   
     axis 0 0 0   XYZ
    dof rx ry rz
    limits (-20.0 45.0)
           (-30.0 30.0)
           (-30.0 30.0)
  end
  begin
     id 14 
     name lowerneck
     direction -0.0921276 0.983211 0.157506   
     length 1.61201   
     axis 0 0 0   XYZ
    dof rx ry rz
    limits (-20.0 45.0)
           (-30.0 30.0)
           (-30.0 30.0)
  end
  begin
     id 15 
     name upperneck
     direction 0.0820814 0.98162 -0.172292   
     length 1.65275   
     axis 0 0 0   XYZ
    dof rx ry rz
    limits (-20.0 45.0)
           (-30.0 30.0)
           (-30.0 30.0)
  end
  begin
     id 16
     name head
     direction 0.0336554 0.996413 -0.0776455  
     length 1.66415  
     axis 0 0 0   XYZ
    dof rx ry rz
    limits (-20.0 45.0)
           (-30.0 30.0)
           (-30.0 30.0)
  end
  begin
     id 17 
     name lclavicle
     direction 0.94696 0.284418 -0.149576  
     length 3.41447  
     axis 0 0 0   XYZ
    dof ry rz
    limits (-20.0 10.0)
           (0.0 20.0)
  end
  begin
     id 18 
     name lhumerus
     direction 1 -0.000130264 -9.81312e-005   
     length 5.19964   
     axis 180 -30 -90   XYZ
    dof rx ry rz
    limits (-60.0 90.0)
           (-90.0 90.0)
           (-90.0 90.0)
  end
  begin
     id 19
     name lradius
     direction 1 -4.48961e-011 1.43854e-026   
     length 3.32189   
     axis 180 -30 -90   XYZ
    dof rx
    limits (-10.0 170.0)
  end
  begin
     id 20
     name lwrist
     direction 1 -4.48958e-011 3.1502e-026   
     length 1.66095   
     axis -1.97692e-014 90 90   XYZ
    dof ry
    limits (-180.0 0.0)
 end
  begin
     id 21 
     name lhand
     direction 1 -4.48927e-011 6.3004e-026   
     length 0.645616   
     axis -4.02019e-014 90 90   XYZ
    dof rx rz
    limits (-90.0 90.0)
           (-45.0 45.0)
  end
  begin
     id 22 
     name lfingers
     direction 1 -4.4904e-011 1.26008e-025   
     length 0.520512   
     axis -8.04039e-014 90 90   XYZ
    dof rx
    limits (0.0 90.0)
  end
  begin
     id 23
     name lthumb
     direction 0.707107 -6.34947e-011 0.707107   
     length 0.747354   
     axis -90 45 2.85299e-015   XYZ
    dof rx rz
    limits (-45.0 45.0)
           (-45.0 45.0)
  end
  begin
     id 24 
     name rclavicle
     direction -0.909391 0.383475 -0.161107   
     length 3.25176  
     axis 0 0 0   XYZ 
    dof ry rz
    limits (-10.0 20.0)
           (-20.0 0.0)
  end
  begin
     id 25 
     name rhumerus
     direction -1 -4.48965e-011 -1.81384e-027  
     length 5.6595   
     axis 180 30 90   XYZ
    dof rx ry rz
    limits (-90.0 60.0)
           (-90.0 90.0)
           (-90.0 90.0)
  end
  begin
     id 26 
     name rradius
     direction -1 -4.48996e-011 -8.09397e-027   
     length 3.37604   
     axis 180 30 90   XYZ
    dof rx
    limits (-10.0 170.0)
  end
  begin
     id 27 
     name rwrist
     direction -1 -4.48927e-011 -1.56669e-026   
     length 1.68802   
     axis 1.21142e-014 -90 -90   XYZ
    dof ry
    limits (-180.0 0.0)
  end
  begin
     id 28
     name rhand
     direction -1 -4.48912e-011 -3.13339e-026   
     length 0.824702   
     axis 1.99937e-014 -90 -90   XYZ
    dof rx rz
    limits (-90.0 90.0)
           (-45.0 45.0)
  end
  begin
     id 29
     name rfingers
     direction -1 -4.49011e-011 -6.26677e-026   
     length 0.664896   
     axis 3.99874e-014 -90 -90   XYZ
    dof rx
    limits (0.0 90.0)
  end
  begin
     id 30
     name rthumb
     direction -0.707107 -6.34931e-011 0.707107   
     length 0.954662   
     axis -90 -45 -2.85299e-015   XYZ
    dof rx rz
    limits (-45.0 45.0)
           (-45.0 45.0)
  end
:hierarchy
  begin
    root lhipjoint rhipjoint lowerback
    lhipjoint lfemur
    lfemur ltibia
    ltibia lfoot
    lfoot ltoes
    rhipjoint rfemur
    rfemur rtibia
    rtibia rfoot
    rfoot rtoes
    lowerback upperback
    upperback thorax
    thorax lowerneck lclavicle rclavicle
    lowerneck upperneck
    upperneck head
    lclavicle lhumerus
    lhumerus lradius
    lradius lwrist
    lwrist lhand lthumb
    lhand lfingers
    rclavicle rhumerus
    rhumerus rradius
    rradius rwrist
    rwrist rhand rthumb
    rhand rfingers
  end

#!OML:ASF F:\VICON\USERDATA\INSTALL\rory3\rory3.ASF
:FULLY-SPECIFIED
:DEGREES
443
root 6.34288 17.0409 4.94045 -2.31333 52.3969 -3.3985
lowerback 8.30839 -4.5351 -1.01458
upperback -1.08062 -5.72239 6.77381
thorax -4.9871 -2.68811 8.43623
lowerneck 5.45843 -15.6062 -16.9781
upperneck 0.587272 -22.3842 22.593
head 3.86833 -11.3341 8.44808
rclavicle -4.23411e-014 -1.43125e-014
rhumerus -22.4911 -24.6709 -43.203
rradius 46.2676
rwrist -25.0718
rhand -19.3505 13.9722
rfingers 7.12502
rthumb 6.96681 -15.8932
lclavicle -4.23411e-014 -1.43125e-014
lhumerus 27.6333 25.8905 84.0134
lradius 27.2598
lwrist 0.558712
lhand -6.74354 38.6892
lfingers 7.12502
lthumb 19.1175 67.7696
rfemur -33.7178 -3.24096 20.9932
rtibia 39.56
rfoot -3.36192 -6.2124
rtoes 41.8829
lfemur -14.6031 5.02665 -18.9619
ltibia 61.1778
lfoot -20.0203 -1.45835
ltoes -2.2752
444
root 6.35955 17.0527 4.89814 -1.83622 51.827 -2.6649
lowerback 8.57729 -4.07385 -1.24194
upperback -1.06531 -5.1535 6.34379
thorax -5.22575 -2.39836 8.06621
lowerneck 5.60601 -15.8626 -17.0574
upperneck 0.682628 -22.7826 22.6345
head 3.96633 -11.5356 8.41972
rclavicle -3.81667e-014 3.02153e-014
rhumerus -22.5652 -24.0716 -43.0207
rradius 47.7118
rwrist -24.8416
rhand -18.9746 14.7276
rfingers 7.12502
rthumb 7.32964 -15.1254
lclavicle -3.81667e-014 3.02153e-014
lhumerus 27.5545 27.2279 81.6634
lradius 27.2532
lwrist 0.226675
lhand -7.02058 38.5325
lfingers 7.12502
lthumb 18.851 67.6391
rfemur -33.6445 -3.39821 20.6084
rtibia 39.4216
rfoot -3.05128 -6.01008
rtoes 42.3194
lfemur -13.858 3.62567 -18.7227
ltibia 59.5448
lfoot -20.1146 0.56736
ltoes -3.25408
445
root 6.37728 17.0615 4.84127 -1.31106 51.3273 -1.95966
lowerback 8.78155 -3.76548 -1.39398
upperback -1.03298 -4.78391 5.9323
thorax -5.38201 -2.2135 7.68338
lowerneck 5.48835 -16.0122 -17.2568
upperneck 0.972188 -23.0481 22.7545
head 4.16422 -11.6509 8.42034
rclavicle -1.31198e-014 -5.08889e-014
rhumerus -22.1025 -23.373 -43.1886
rradius 48.9968
rwrist -24.8349
rhand -18.8671 15.187
rfingers 7.12502
rthumb 7.43343 -14.6624
lclavicle -1.31198e-014 -5.08889e-014
lhumerus 27.3992 28.8406 79.0904
lradius 27.1277
lwrist -0.281444
lhand -7.61126 38.2742
lfingers 7.12502
lthumb 18.2829 67.435
rfemur -33.6778 -3.50895 20.1439
rtibia 39.3012
rfoot -2.70725 -5.63197
rtoes 40.6292
lfemur -13.1393 1.95306 -18.5781
ltibia 57.7378
lfoot -20.2076 2.33469
ltoes -2.31463
446
root 6.39688 17.0627 4.78312 -0.741855 50.8354 -1.20017
lowerback 8.97686 -3.50545 -1.60855
upperback -1.03901 -4.48749 5.51285
thorax -5.55625 -2.0626 7.33633
lowerneck 6.33255 -15.7683 -17.4438
upperneck 0.364787 -22.7721 23.3713
head 3.8965 -11.59 8.77686
rclavicle -3.24019e-014 4.77083e-014
rhumerus -21.5995 -22.6093 -43.4204
rradius 50.1743
rwrist -25.0331
rhand -18.8943 15.3745
rfingers 7.12502
rthumb 7.4072 -14.4758
lclavicle -3.24019e-014 4.77083e-014
lhumerus 26.481 29.6022 75.6486
lradius 27.3264
lwrist 0.460758
lhand -9.10631 39.0931
lfingers 7.12502
lthumb 16.8441 68.3826
rfemur -33.7194 -3.53152 19.5916
rtibia 39.1821
rfoot -2.40255 -5.28838
rtoes 39.653
lfemur -12.4292 0.166645 -18.5798
ltibia 55.8642
lfoot -20.8728 3.14665
ltoes -2.37709
447
root 6.41555 17.0608 4.73708 0.0927904 50.2758 -0.235951
lowerback 8.95324 -3.16023 -2.08657
upperback -1.02299 -4.11133 5.1054
thorax -5.57211 -1.87054 7.12201
lowerneck 6.59324 -15.8008 -17.4877
upperneck 0.147435 -22.8276 23.489
head 3.82262 -11.6418 8.84072
rclavicle 1.09332e-014 -3.18055e-015
rhumerus -21.3975 -22.2256 -43.5413
rradius 51.577
rwrist -25.0071
rhand -19.0802 15.6476
rfingers 7.12502
rthumb 7.22772 -14.209
lclavicle 1.09332e-014 -3.18055e-015
lhumerus 25.3397 29.8754 72.2319
lradius 27.8257
lwrist 1.25519
lhand -10.7622 40.5025
lfingers 7.12502
lthumb 15.2495 69.9204
rfemur -33.8267 -3.50259 18.9249
rtibia 38.9463
rfoot -2.04068 -4.91748
rtoes 39.0681
lfemur -11.7729 -1.5457 -18.7159
ltibia 53.8858
lfoot -21.7269 3.37793
ltoes -7.39848
